<svg xmlns="http://www.w3.org/2000/svg" viewBox="0 0 62.52 62.52"><g id="Layer_2" data-name="Layer 2"><g id="Layer_1-2" data-name="Layer 1"><circle cx="31.26" cy="31.26" r="31.26" style="fill:#fff"/><path d="M27.09.29a31.25,31.25,0,0,0,0,62Z" style="fill:#ff551c"/><path d="M37.35,31.26A14.59,14.59,0,1,1,22.76,16.67,14.59,14.59,0,0,1,37.35,31.26Z" style="fill:#fff"/><path d="M56.27,31.26A14.59,14.59,0,1,1,41.68,16.67,14.59,14.59,0,0,1,56.27,31.26Z" style="fill:#ff551c"/><path d="M34.91,31.26H27.09v31a32,32,0,0,0,4.17.28,31.38,31.38,0,0,0,3.65-.22Z" style="fill:#ff551c"/><path d="M47.94,31.26A6.26,6.26,0,1,1,41.68,25,6.26,6.26,0,0,1,47.94,31.26Z" style="fill:#fff"/><path d="M29,31.26A6.26,6.26,0,1,1,22.76,25,6.26,6.26,0,0,1,29,31.26Z" style="fill:#ff551c"/></g></g></svg>