<svg xmlns="http://www.w3.org/2000/svg" viewBox="0 0 180 40"><g id="Layer_2" data-name="Layer 2"><g id="Layer_1-2" data-name="Layer 1"><path d="M172,3.24,88,0H15A15,15,0,0,0,0,15V40H88l89-8.22Z" style="fill:#fff"/><path d="M165,0H88V40h77a15,15,0,0,0,15-15V15A15,15,0,0,0,165,0ZM107.18,27.94h0l0,0,0,0-.1.07a8.25,8.25,0,0,1-5.7,2.23,8.52,8.52,0,0,1-6.82-3.2A10.78,10.78,0,0,1,92,20a10.65,10.65,0,0,1,2.75-7.42,8.61,8.61,0,0,1,13.12.4,10,10,0,0,1,1.72,3l.06.22h-2.6c-1.35-2.66-3.33-4-5.94-4a6.19,6.19,0,0,0-5.2,2.74,8.11,8.11,0,0,0-1.34,3A9,9,0,0,0,94.32,20,8,8,0,0,0,96.66,26a6.3,6.3,0,0,0,4.54,1.91A6.06,6.06,0,0,0,106,25.45a14.58,14.58,0,0,0,1-1.4h2.63A13.13,13.13,0,0,1,107.18,27.94Zm20.07-.15,0,.08a7.85,7.85,0,0,1-5.83,2.44A8.31,8.31,0,0,1,114.5,27a11.19,11.19,0,0,1-2.25-7.1,10.41,10.41,0,0,1,2.81-7.48,8.37,8.37,0,0,1,12.82.61,11.36,11.36,0,0,1,2.18,7.05A10.75,10.75,0,0,1,127.25,27.79Zm23.65,2.06h-2.31V26.28c-1.4,2.31-3.13,3.61-5.2,3.93l-1.31.1a8.62,8.62,0,0,1-6.89-3.24,10.59,10.59,0,0,1-2.44-7,10.57,10.57,0,0,1,2.85-7.6,8.27,8.27,0,0,1,6.26-2.73,8,8,0,0,1,6.73,3.6v-10h2.31ZM159,26.21a6.09,6.09,0,0,0,4.16,1.66A6,6,0,0,0,168,25.49a6.6,6.6,0,0,0,1.19-2.12h2.41a10.86,10.86,0,0,1-2.5,4.32,7.68,7.68,0,0,1-5.82,2.62,8.17,8.17,0,0,1-6.58-3.2,11,11,0,0,1-2.47-7.2A10.55,10.55,0,0,1,157,12.46a8,8,0,0,1,6.13-2.77,8.11,8.11,0,0,1,6.32,3,10.29,10.29,0,0,1,1.44,2.16A14.37,14.37,0,0,1,172,20.88H156.51A7.32,7.32,0,0,0,159,26.21Z" style="fill:#ff551c"/><path d="M122.15,12.21a5.84,5.84,0,0,0-.93-.08,6,6,0,0,0-5.16,2.78,8.78,8.78,0,0,0-1.4,3.81L114.57,20a8.09,8.09,0,0,0,2.5,6.3,6.12,6.12,0,0,0,4.26,1.62A5.75,5.75,0,0,0,126.4,25a8.94,8.94,0,0,0,1.34-4.93,8.31,8.31,0,0,0-2.37-6.26A5.81,5.81,0,0,0,122.15,12.21Z" style="fill:#ff551c"/><path d="M141.8,12.13a6.14,6.14,0,0,0-5.1,2.67,8.32,8.32,0,0,0-1.63,5.11A8.1,8.1,0,0,0,137.46,26,6.38,6.38,0,0,0,142,27.87a6.07,6.07,0,0,0,5-2.67A8.52,8.52,0,0,0,148.71,20a7.92,7.92,0,0,0-2.35-5.87A6.26,6.26,0,0,0,141.8,12.13Z" style="fill:#ff551c"/><path d="M166,12.86a6,6,0,0,0-2.91-.73A5.89,5.89,0,0,0,158,15a8.86,8.86,0,0,0-1.38,3.55h13.11Q168.87,14.42,166,12.86Z" style="fill:#ff551c"/><path d="M4,10.15H6.63v3.39c1.63-2.47,4.18-3.76,7.63-3.85A9.79,9.79,0,0,1,21.82,13a10.19,10.19,0,0,1,2.63,7.09,9.89,9.89,0,0,1-3.15,7.49,10,10,0,0,1-7.12,2.77,8.52,8.52,0,0,1-7.55-3.85v10.3H4Zm10.14,2A7.43,7.43,0,0,0,8.27,14.8a7.71,7.71,0,0,0-1.85,5.11A7.72,7.72,0,0,0,9.16,26.1a7.52,7.52,0,0,0,5,1.77,7.28,7.28,0,0,0,5.91-2.74,7.85,7.85,0,0,0,1.74-5.08,7.62,7.62,0,0,0-2.74-6.15A7.05,7.05,0,0,0,16,12.35,7.86,7.86,0,0,0,14.14,12.13Z" style="fill:#ff551c"/><path d="M28.26,29.85V3.24h2.63V29.85Z" style="fill:#ff551c"/><path d="M55.15,10.15v19.7H52.52V26.39a8.77,8.77,0,0,1-5.43,3.74,11.2,11.2,0,0,1-2.06.18A10,10,0,0,1,37.26,27a9.82,9.82,0,0,1-2.63-6.95,10.07,10.07,0,0,1,3.23-7.7,9.88,9.88,0,0,1,7-2.66,8.83,8.83,0,0,1,7.39,3.56l0,0,.25.36v-3.5Zm-10.24,2a7.26,7.26,0,0,0-5.77,2.67,7.28,7.28,0,0,0-1.77,3.85l-.11,1.22A7.71,7.71,0,0,0,40,26a7.54,7.54,0,0,0,5.09,1.88,7,7,0,0,0,5.69-2.74,8,8,0,0,0,1.78-5.22A7.56,7.56,0,0,0,49.89,14a7,7,0,0,0-3.2-1.62A7.48,7.48,0,0,0,44.91,12.13Z" style="fill:#ff551c"/><path d="M59.67,7.78V3.24H62.3V7.78Zm0,22.07V10.15H62.3v19.7Z" style="fill:#ff551c"/><path d="M66.78,29.85V10.15h2.64v2.56a7.72,7.72,0,0,1,6.27-3,8,8,0,0,1,6.63,3.06A9.52,9.52,0,0,1,84,18.18V29.85H81.37V19.51a8.74,8.74,0,0,0-1.28-5.25,5.74,5.74,0,0,0-4.73-2.13,5.63,5.63,0,0,0-4.74,2.2.87.87,0,0,0-.17.22,8,8,0,0,0-1,4.46V29.85Z" style="fill:#ff551c"/></g></g></svg>